<svg width="25" height="25" viewBox="0 0 25 25" fill="none" xmlns="http://www.w3.org/2000/svg">
<path d="M12.6856 15.0521L16.688 11.0498H8.68325L12.6856 15.0521ZM12.6856 22.0563C11.3015 22.0563 10.0007 21.7935 8.78331 21.2678C7.56592 20.7428 6.50696 20.0301 5.60642 19.1296C4.70589 18.229 3.99313 17.1701 3.46815 15.9527C2.94251 14.7353 2.67969 13.4345 2.67969 12.0504C2.67969 10.6662 2.94251 9.36544 3.46815 8.14805C3.99313 6.93066 4.70589 5.8717 5.60642 4.97117C6.50696 4.07063 7.56592 3.35755 8.78331 2.8319C10.0007 2.30692 11.3015 2.04443 12.6856 2.04443C14.0698 2.04443 15.3705 2.30692 16.5879 2.8319C17.8053 3.35755 18.8643 4.07063 19.7648 4.97117C20.6653 5.8717 21.3781 6.93066 21.9031 8.14805C22.4287 9.36544 22.6915 10.6662 22.6915 12.0504C22.6915 13.4345 22.4287 14.7353 21.9031 15.9527C21.3781 17.1701 20.6653 18.229 19.7648 19.1296C18.8643 20.0301 17.8053 20.7428 16.5879 21.2678C15.3705 21.7935 14.0698 22.0563 12.6856 22.0563Z" fill="#4F1963"/>
</svg>
