<svg width="24" height="24" viewBox="0 0 24 24" fill="none" xmlns="http://www.w3.org/2000/svg">
<path d="M12 17.832C12.3306 17.832 12.6078 17.72 12.8318 17.496C13.0551 17.2728 13.1667 16.9959 13.1667 16.6654V11.9695C13.1667 11.639 13.0551 11.3668 12.8318 11.1529C12.6078 10.939 12.3306 10.832 12 10.832C11.6695 10.832 11.3926 10.9436 11.1693 11.1669C10.9453 11.3909 10.8333 11.6681 10.8333 11.9987V16.6945C10.8333 17.0251 10.9453 17.2973 11.1693 17.5112C11.3926 17.7251 11.6695 17.832 12 17.832ZM12 8.4987C12.3306 8.4987 12.6078 8.3867 12.8318 8.1627C13.0551 7.93948 13.1667 7.66259 13.1667 7.33203C13.1667 7.00148 13.0551 6.7242 12.8318 6.5002C12.6078 6.27698 12.3306 6.16537 12 6.16537C11.6695 6.16537 11.3926 6.27698 11.1693 6.5002C10.9453 6.7242 10.8333 7.00148 10.8333 7.33203C10.8333 7.66259 10.9453 7.93948 11.1693 8.1627C11.3926 8.3867 11.6695 8.4987 12 8.4987ZM12 23.6654C10.3861 23.6654 8.86946 23.3589 7.45001 22.746C6.03057 22.1339 4.79584 21.3029 3.74584 20.2529C2.69584 19.2029 1.86479 17.9681 1.25268 16.5487C0.639788 15.1293 0.333344 13.6126 0.333344 11.9987C0.333344 10.3848 0.639788 8.86814 1.25268 7.4487C1.86479 6.02925 2.69584 4.79453 3.74584 3.74453C4.79584 2.69453 6.03057 1.86309 7.45001 1.2502C8.86946 0.638087 10.3861 0.332031 12 0.332031C13.6139 0.332031 15.1306 0.638087 16.55 1.2502C17.9695 1.86309 19.2042 2.69453 20.2542 3.74453C21.3042 4.79453 22.1352 6.02925 22.7473 7.4487C23.3602 8.86814 23.6667 10.3848 23.6667 11.9987C23.6667 13.6126 23.3602 15.1293 22.7473 16.5487C22.1352 17.9681 21.3042 19.2029 20.2542 20.2529C19.2042 21.3029 17.9695 22.1339 16.55 22.746C15.1306 23.3589 13.6139 23.6654 12 23.6654ZM12 21.332C14.5861 21.332 16.7884 20.4232 18.6068 18.6055C20.4245 16.7871 21.3333 14.5848 21.3333 11.9987C21.3333 9.41259 20.4245 7.21031 18.6068 5.39186C16.7884 3.5742 14.5861 2.66536 12 2.66536C9.4139 2.66536 7.21201 3.5742 5.39434 5.39186C3.5759 7.21031 2.66668 9.41259 2.66668 11.9987C2.66668 14.5848 3.5759 16.7871 5.39434 18.6055C7.21201 20.4232 9.4139 21.332 12 21.332Z" fill="#9C74F5"/>
</svg>
